# xmcd
#
# Track frame offsets: 
#        150
#        776
#        32991
#        61626
#        75438
#        116190
#        138808
#        162255
#        186829
#        210714
#        224635
#        254992
#        262964
#        306730
#        327988
#
# Disc length: 4654 seconds
#
# Revision: 0
# Processed by: cddbd v1.5.2PL0 Copyright (c) Steve Scherf et al.
# Submitted via: ExactAudioCopy v0.99pb4
#
DISCID=d9122c0f
DTITLE=ZIEBOLZ, Burkhard - Riesen and Zwerge (Krimi-7 CD-107 Tracks)
DYEAR=2006
DGENRE=Hörbuch
TTITLE0=001 Riesen and Zwerge-CD 1-01
TTITLE1=002 Riesen and Zwerge-CD 1-02
TTITLE2=003 Riesen and Zwerge-CD 1-03
TTITLE3=004 Riesen and Zwerge-CD 1-04
TTITLE4=005 Riesen and Zwerge-CD 1-05
TTITLE5=006 Riesen and Zwerge-CD 1-06
TTITLE6=007 Riesen and Zwerge-CD 1-07
TTITLE7=008 Riesen and Zwerge-CD 1-08
TTITLE8=009 Riesen and Zwerge-CD 1-09
TTITLE9=010 Riesen and Zwerge-CD 1-10
TTITLE10=011 Riesen and Zwerge-CD 1-11
TTITLE11=012 Riesen and Zwerge-CD 1-12
TTITLE12=013 Riesen and Zwerge-CD 1-13
TTITLE13=014 Riesen and Zwerge-CD 1-14
TTITLE14=015 Riesen and Zwerge-CD 1-15
EXTD=
EXTT0=
EXTT1=
EXTT2=
EXTT3=
EXTT4=
EXTT5=
EXTT6=
EXTT7=
EXTT8=
EXTT9=
EXTT10=
EXTT11=
EXTT12=
EXTT13=
EXTT14=
PLAYORDER=
